<svg version="1.0" xmlns="http://www.w3.org/2000/svg"
 width="100%" height="100%" viewBox="0 0 512 512"
 preserveAspectRatio="xMidYMid meet">

<g transform="translate(0, 512) scale(0.1, -0.1)"
fill="#000000" stroke="none">
<path d="M4502 4570 c-412 -124 -425 -127 -466 -115 -139 42 -409 58 -569 34
-243 -36 -486 -138 -679 -285 -164 -125 -337 -338 -426 -526 -43 -90 -93 -238
-112 -331 -6 -32 -15 -57 -18 -55 -4 2 -68 33 -142 70 -217 108 -399 151 -640
151 -229 0 -417 -42 -617 -138 -428 -205 -715 -577 -809 -1050 -27 -135 -25
-405 4 -542 42 -196 130 -398 237 -548 l53 -73 -155 -272 c-115 -201 -157
-283 -160 -314 -8 -81 59 -156 141 -156 24 0 220 54 468 128 l427 129 71 -18
c125 -32 236 -42 400 -36 228 9 399 52 593 151 393 199 680 574 767 999 6 31
13 57 15 57 2 0 32 -17 67 -37 129 -76 309 -139 478 -169 124 -22 354 -22 475
-1 424 76 786 322 1005 683 88 144 151 310 186 489 27 135 25 406 -4 542 -42
195 -130 398 -237 548 l-53 73 155 272 c115 201 157 283 160 314 8 84 -60 157
-146 155 -28 0 -210 -50 -469 -129z m145 -277 c-2 -5 -41 -72 -86 -151 -45
-78 -84 -155 -87 -172 -12 -56 5 -93 87 -195 190 -237 281 -537 251 -828 -13
-129 -38 -232 -83 -338 -152 -359 -482 -622 -869 -690 -103 -18 -296 -16 -401
4 -163 32 -331 103 -454 193 -105 76 -111 84 -119 150 -27 231 -146 507 -305
704 -56 70 -61 79 -61 126 0 28 7 93 16 144 43 252 154 460 337 637 176 169
362 265 602 309 132 24 346 15 480 -20 55 -14 113 -26 130 -26 16 0 147 36
290 79 278 85 278 85 272 74z m-2976 -1099 c552 -104 957 -620 926 -1182 -16
-287 -120 -530 -316 -735 -177 -185 -385 -298 -634 -342 -140 -25 -345 -17
-482 19 -55 14 -113 26 -130 26 -16 0 -149 -36 -295 -80 -145 -43 -265 -78
-266 -77 -2 1 35 69 82 150 46 81 87 161 90 177 12 56 -5 93 -87 195 -92 115
-175 273 -213 405 -198 697 286 1397 1014 1464 69 6 227 -4 311 -20z"/>
<path d="M3126 3510 c-94 -29 -135 -157 -75 -234 45 -57 31 -56 622 -56 l544
0 34 23 c91 61 89 181 -5 251 -27 21 -39 21 -559 23 -293 1 -545 -2 -561 -7z"/>
<path d="M3126 2910 c-94 -29 -135 -157 -75 -234 45 -57 31 -56 622 -56 l544
0 34 23 c91 61 89 181 -5 251 -27 21 -39 21 -559 23 -293 1 -545 -2 -561 -7z"/>
<path d="M1371 2909 c-167 -29 -311 -164 -356 -334 -20 -77 -19 -132 3 -175
62 -124 255 -98 277 39 14 82 18 94 47 127 106 120 300 2 247 -150 -11 -32
-31 -53 -90 -98 -141 -105 -189 -198 -196 -373 -4 -92 -1 -116 14 -145 52
-100 198 -108 260 -14 12 19 19 56 23 125 7 110 10 115 96 180 105 78 160 155
189 264 46 180 -25 374 -177 478 -97 67 -224 96 -337 76z"/>
<path d="M1406 1410 c-94 -29 -135 -157 -75 -234 91 -115 280 -42 266 103 -10
94 -103 158 -191 131z"/>
</g>
</svg>