<svg version="1.0" xmlns="http://www.w3.org/2000/svg"
 width="100%" height="100%" viewBox="0 0 512 512"
 preserveAspectRatio="xMidYMid meet">

<g transform="translate(0,512) scale(0.1, -0.1)"
fill="#000000" stroke="none">
<path d="M1835 5110 c-959 -82 -1727 -839 -1825 -1799 -105 -1046 635 -2006
1675 -2171 326 -51 631 -27 940 75 206 67 390 161 550 279 l60 45 750 -748
c826 -825 786 -790 899 -778 171 17 275 193 205 347 -15 35 -190 215 -761 787
l-741 741 76 114 c82 121 190 336 231 458 70 210 97 362 103 591 10 354 -45
622 -192 927 -314 651 -930 1073 -1650 1132 -140 11 -185 11 -320 0z m445
-515 c297 -58 567 -202 779 -414 176 -176 293 -365 370 -596 55 -167 74 -289
74 -470 0 -181 -19 -303 -74 -468 -173 -525 -605 -903 -1154 -1014 -136 -27
-435 -24 -568 5 -414 91 -747 319 -971 665 -97 148 -164 309 -208 496 -29 127
-36 414 -13 553 88 529 437 964 930 1161 102 41 256 82 360 96 101 14 374 6
475 -14z"/>
</g>
</svg>
